<svg xmlns="http://www.w3.org/2000/svg" width="13" height="17.261" viewBox="0 0 13 17.261">
  <g id="lock" transform="translate(-75.471 -159.988)">
    <g id="Group_619" data-name="Group 619">
      <g id="Group_618" data-name="Group 618">
        <path id="Path_272" data-name="Path 272" d="M81.118,171.911l-.228,2.049a.362.362,0,0,0,.32.4l.039,0h1.445a.361.361,0,0,0,.361-.361c0-.013,0-.026,0-.039l-.228-2.049a1.426,1.426,0,0,0,.591-1.162,1.445,1.445,0,1,0-2.3,1.162Zm.853-1.884a.72.72,0,0,1,.312,1.37.361.361,0,0,0-.2.365l.209,1.876h-.638l.209-1.876a.361.361,0,0,0-.2-.365.72.72,0,0,1,.312-1.37Z" fill="#0a4c88"/>
        <path id="Path_273" data-name="Path 273" d="M88.11,166.416H87.027v-1.444a5.056,5.056,0,0,0-10.111,0v1.444H75.832a.361.361,0,0,0-.361.361h0V175.8a1.446,1.446,0,0,0,1.444,1.444H87.027a1.446,1.446,0,0,0,1.444-1.444v-9.028a.361.361,0,0,0-.361-.361Zm-10.472-1.444a4.333,4.333,0,0,1,8.667,0v1.444h-.722v-1.444a3.611,3.611,0,0,0-7.222,0v1.444h-.722Zm7.222,0v1.444H79.082v-1.444a2.889,2.889,0,0,1,5.778,0ZM87.749,175.8a.722.722,0,0,1-.722.722H76.915a.723.723,0,0,1-.722-.722v-8.667H87.749Z" fill="#0a4c88"/>
      </g>
    </g>
  </g>
</svg>
