<svg xmlns="http://www.w3.org/2000/svg" width="18.022" height="17.186" viewBox="0 0 18.022 17.186">
  <g id="Group_635" data-name="Group 635" transform="translate(-28.662 -160.025)">
    <path id="Subtraction_1" data-name="Subtraction 1" d="M36.767,177.211c-2.07,0-4.255,0-6.492-.007-.846,0-1.255-.1-1.456-.355s-.211-.677-.017-1.542a6.064,6.064,0,0,1,5.881-4.826c.978-.031,1.978-.047,2.967-.047s2,.016,3.011.047c2.84.086,4.81,1.63,6.023,4.718V177c-.17.022-.342.05-.509.078a6.894,6.894,0,0,1-1.1.121C42.429,177.206,39.635,177.211,36.767,177.211Zm4.7-1.359c1.046,0,1.9.011,2.7.034h.121c.47,0,.754-.09.869-.276s.066-.516-.2-1.048a4.258,4.258,0,0,0-3.671-2.683c-1.215-.058-2.439-.087-3.638-.087-1.18,0-2.366.028-3.524.084A4.322,4.322,0,0,0,30.3,174.8c-.175.4-.2.659-.093.831s.354.247.752.247h.056c.829-.016,1.729-.023,2.832-.023h3.742c.646,0,1.3,0,1.938-.008s1.288,0,1.936,0Z" fill="#0f508a"/>
    <path id="Subtraction_2" data-name="Subtraction 2" d="M37.653,169.625a4.792,4.792,0,0,1-3.393-8.178,4.713,4.713,0,0,1,3.372-1.422h.019a4.851,4.851,0,0,1,4.823,4.726,4.746,4.746,0,0,1-1.369,3.424,4.8,4.8,0,0,1-3.439,1.45Zm0-8.292h0a3.554,3.554,0,0,0-2.535,1.041,3.447,3.447,0,0,0-1.012,2.457,3.535,3.535,0,0,0,3.546,3.5,3.58,3.58,0,0,0,3.558-3.5,3.533,3.533,0,0,0-3.558-3.505Z" fill="#0c4d88"/>
  </g>
</svg>
